<svg width="523" height="438" viewBox="0 0 523 438" fill="none" xmlns="http://www.w3.org/2000/svg">
<path d="M365.781 17.0004H156.434C147.345 17.09 138.439 19.2888 130.592 23.3801C122.746 27.4715 116.23 33.3145 111.686 40.3337L7.01181 203.667C2.41829 210.761 0 218.808 0 227C0 235.192 2.41829 243.239 7.01181 250.333L111.686 413.666C116.23 420.686 122.746 426.528 130.592 430.62C138.439 434.711 147.345 436.91 156.434 437H365.781C375.004 437.032 384.072 434.891 392.068 430.794C400.064 426.696 406.703 420.788 411.314 413.666L515.988 250.333C520.582 243.239 523 235.192 523 227C523 218.808 520.582 210.761 515.988 203.667L411.314 40.3337C406.703 33.2121 400.064 27.3035 392.068 23.206C384.072 19.1085 375.004 16.9677 365.781 17.0004Z" fill="white"/>
<path d="M85.4452 436.546C85.4268 436.756 85.4922 436.965 85.627 437.128C85.7619 437.29 85.9554 437.393 86.1656 437.414H445.315C445.518 437.376 445.701 437.269 445.833 437.11C445.965 436.952 446.037 436.752 446.037 436.546C446.037 436.339 445.965 436.14 445.833 435.981C445.701 435.823 445.518 435.715 445.315 435.678H86.1656C85.9554 435.698 85.7619 435.801 85.627 435.964C85.4922 436.126 85.4268 436.335 85.4452 436.546Z" fill="#CCCCCC"/>
<path d="M278.435 350.898C277.848 354.45 276.019 357.677 273.275 360.006C270.53 362.334 267.047 363.612 263.448 363.612C259.849 363.612 256.366 362.334 253.621 360.006C250.877 357.677 249.048 354.45 248.461 350.898H210.119V433.993H316.777V350.898H278.435Z" fill="#D6D6E3"/>
<path d="M222.521 433.683H211.979V435.543H222.521V433.683Z" fill="#B6B3C5"/>
<path d="M315.848 433.993H305.306V435.853H315.848V433.993Z" fill="#B6B3C5"/>
<path d="M317.088 427.41H210.429V430.302H317.088V427.41Z" fill="#090814"/>
<path d="M477.951 353.069H48.946C47.3695 353.067 45.858 352.44 44.7433 351.325C43.6286 350.21 43.0017 348.699 43 347.122V102.29C43.0017 100.713 43.6286 99.2016 44.7433 98.0867C45.858 96.9719 47.3695 96.3448 48.946 96.343H477.949C479.525 96.3447 481.037 96.9716 482.152 98.0863C483.267 99.2011 483.894 100.712 483.895 102.289V347.122C483.893 348.699 483.266 350.21 482.152 351.325C481.037 352.439 479.525 353.066 477.949 353.068L477.951 353.069Z" fill="#090814"/>
<path d="M473.355 106.265H53.541V343.147H473.355V106.265Z" fill="white"/>
<path d="M300.602 314.698H230.877C229.165 314.698 227.523 314.017 226.313 312.807C225.102 311.596 224.422 309.954 224.422 308.242C224.422 306.53 225.102 304.888 226.313 303.678C227.523 302.467 229.165 301.787 230.877 301.787H300.602C302.314 301.787 303.956 302.467 305.167 303.678C306.377 304.888 307.057 306.53 307.057 308.242C307.057 309.954 306.377 311.596 305.167 312.807C303.956 314.017 302.314 314.698 300.602 314.698Z" fill="#9C0D38"/>
<path d="M290.429 246.399H236.254C232.755 246.399 229.91 244.634 229.91 242.465C229.91 240.295 232.755 238.529 236.254 238.529H290.429C293.927 238.529 296.773 240.295 296.773 242.465C296.773 244.634 293.927 246.399 290.429 246.399Z" fill="#D1D1D2"/>
<path d="M266.366 207.228L266.1 206.682C266.018 206.515 258.047 189.851 262.491 173.421C266.936 156.991 282.222 146.617 282.376 146.512L282.881 146.172L283.147 146.718C283.229 146.885 291.2 163.549 286.755 179.979C282.31 196.409 267.024 206.783 266.871 206.888L266.366 207.228ZM282.454 147.758C279.778 149.704 267.397 159.349 263.516 173.697C259.631 188.055 265.464 202.617 266.794 205.646C269.47 203.7 281.851 194.055 285.732 179.707C289.616 165.349 283.784 150.787 282.454 147.758V147.758Z" fill="#3F3D56"/>
<path d="M245.812 179.847C250.257 196.276 265.479 206.45 265.479 206.45C265.479 206.45 273.496 189.988 269.052 173.56C264.609 157.132 249.385 146.956 249.385 146.956C249.385 146.956 241.368 163.417 245.812 179.847Z" fill="#9C0D38"/>
<path d="M266.606 206.999L265.999 206.966C265.814 206.956 247.379 205.82 235.18 193.947C222.981 182.073 221.352 163.673 221.334 163.488L221.285 162.883L221.892 162.916C222.077 162.926 240.512 164.062 252.711 175.936C264.91 187.809 266.539 206.209 266.554 206.394L266.606 206.999ZM222.461 164.025C222.859 167.31 225.269 182.818 235.92 193.185C246.57 203.553 262.137 205.543 265.432 205.855C265.034 202.57 262.624 187.065 251.973 176.695C241.317 166.32 225.755 164.336 222.461 164.026V164.025Z" fill="#3F3D56"/>
<path d="M279.714 176.316C267.518 188.187 266.029 206.437 266.029 206.437C266.029 206.437 284.312 205.439 296.507 193.567C308.702 181.695 310.194 163.446 310.194 163.446C310.194 163.446 291.909 164.444 279.714 176.316Z" fill="#3F3D56"/>
<path d="M265.774 144.245C270.167 144.245 273.728 140.684 273.728 136.292C273.728 131.899 270.167 128.338 265.774 128.338C261.382 128.338 257.821 131.899 257.821 136.292C257.821 140.684 261.382 144.245 265.774 144.245Z" fill="#9C0D38"/>
<path d="M442.127 204.193C437.323 208.869 436.734 216.057 436.734 216.057C436.734 216.057 443.935 215.664 448.738 210.988C453.542 206.312 454.131 199.123 454.131 199.123C454.131 199.123 446.928 199.517 442.127 204.193Z" fill="#3F3D56"/>
<path d="M416.198 344.521L415.463 343.757C415.576 343.643 444.671 304.35 449.04 283.351C453.076 263.958 451.705 234.864 422.259 192.876C399.678 160.672 390.538 132.537 395.096 109.251C399.102 88.7946 491.803 87.8301 491.94 87.7421L492.515 88.6333C492.381 88.7196 400.038 89.4724 396.131 109.489C391.646 132.474 400.729 160.325 423.128 192.267C436.228 210.947 444.95 229.24 449.049 246.638C452.334 260.581 452.676 271.145 450.065 283.635C445.615 304.929 416.317 344.408 416.198 344.521Z" fill="#3F3D56"/>
<path d="M437.573 0.339584C437.573 0.339584 423.43 -3.64446 419.247 15.6774C415.064 34.9993 418.254 44.7607 418.254 44.7607L449.826 41.0758C449.826 41.0758 458.787 6.2146 437.573 0.339584Z" fill="#090814"/>
<path d="M416.416 84.026C416.416 84.026 395.67 86.0918 399.366 94.4675C403.061 102.843 403.061 103.582 403.061 103.582L421.289 136.097L427.202 129.938C427.202 129.938 420.548 115.403 420.548 110.725C420.548 106.047 413.651 97.9179 413.651 97.9179L425.721 96.9324L416.416 84.026Z" fill="#FFB9B9"/>
<path d="M473.262 93.9743L480.159 109C480.159 109 485.332 114.173 490.997 134.865C496.663 155.557 497.895 154.818 497.895 154.818L489.275 156.542C489.275 156.542 479.666 134.127 476.464 132.402C473.262 130.676 469.32 114.912 469.32 114.912L457.989 100.625L461.438 92.9893L473.262 93.9743Z" fill="#FFB9B9"/>
<path d="M464.887 76.7335L475.479 96.4397C475.479 96.4397 462.177 90.2814 460.208 103.829L448.138 94.4687C448.138 94.4687 431.387 99.8878 421.286 97.9174C421.286 97.9174 424.242 88.5568 413.65 84.3695L437.544 81.4135L436.559 76.2407L439.022 71.3143L464.887 76.7335Z" fill="#090814"/>
<path d="M422.762 131.664C422.762 131.664 416.111 130.678 417.835 136.59L421.286 148.411C421.286 148.411 416.852 160.481 423.749 157.771C430.646 155.062 435.08 138.311 435.08 138.311C435.08 138.311 438.036 125.502 435.08 125.502C432.124 125.502 422.761 123.532 423.749 125.502C424.737 127.472 422.762 131.664 422.762 131.664Z" fill="#090814"/>
<path d="M497.156 151.369C497.156 151.369 488.534 149.152 486.564 152.601C484.593 156.049 485.088 167.38 485.088 167.627C485.088 167.873 488.044 170.336 489.029 170.336C490.015 170.336 496.173 181.421 504.548 177.48C512.923 173.539 497.156 151.369 497.156 151.369Z" fill="#090814"/>
<path d="M435.081 30.4214C440.387 30.4214 444.688 26.1202 444.688 20.8144C444.688 15.5086 440.387 11.2074 435.081 11.2074C429.775 11.2074 425.474 15.5086 425.474 20.8144C425.474 26.1202 429.775 30.4214 435.081 30.4214Z" fill="#FFB9B9"/>
<path d="M442.964 22.7854C442.964 22.7854 444.934 33.1315 446.659 34.6092C448.383 36.0869 433.602 38.3043 433.602 38.3043C433.602 38.3043 435.819 31.1605 433.109 27.466C430.4 23.7715 442.964 22.7854 442.964 22.7854Z" fill="#FFB9B9"/>
<path d="M468.828 81.4118C467.151 81.4118 462.88 80.717 458.091 79.8223C453.947 79.0491 449.413 78.13 445.836 77.3863C442.006 76.5882 439.269 75.9904 439.269 75.9904C439.269 75.9904 438.284 82.1487 435.082 81.4095C432.323 80.7737 424.078 51.9754 421.849 44.0164C421.686 43.4353 421.717 42.8168 421.938 42.2552C422.159 41.6937 422.558 41.2197 423.073 40.9055L434.397 33.991L437.299 35.0997C437.299 35.0997 442.201 31.3109 445.046 31.2349C447.891 31.1588 452.818 30.4197 452.818 30.4197C452.818 30.4197 458.483 30.9124 459.469 35.0997C460.454 39.287 460.945 65.3984 464.642 70.0785C468.338 74.7585 473.508 81.4118 468.828 81.4118Z" fill="#D6D6E3"/>
<path d="M434.342 95.2061C434.342 95.2061 434.342 104.813 440.747 103.335C447.151 101.857 441.24 92.9893 441.24 92.9893L434.342 95.2061Z" fill="#FFB9B9"/>
<path d="M452.077 96.1927C452.077 96.1927 449.861 107.524 445.18 105.8C440.499 104.076 445.18 93.9758 445.18 93.9758L452.077 96.1927Z" fill="#FFB9B9"/>
<path opacity="0.15" d="M462.424 69.3416C462.424 69.3416 460.012 75.0957 458.091 79.8228C453.946 79.0497 449.412 78.1306 445.836 77.3869C446.093 76.7065 446.453 76.07 446.905 75.4999C448.629 73.5294 447.643 73.0367 447.643 73.0367C446.167 70.0807 447.396 66.1393 447.396 66.1393C444.44 58.2569 448.872 48.4035 448.872 48.4035L462.424 69.3416Z" fill="black"/>
<path d="M449.615 48.4029C449.615 48.4029 445.181 58.2563 448.139 66.1387C448.139 66.1387 446.907 70.0801 448.385 73.0361C448.385 73.0361 449.371 73.5288 447.647 75.4993C445.924 77.4697 444.445 84.3672 445.677 85.8449C446.909 87.3226 443.953 90.0327 444.691 91.5104C445.43 92.9881 443.46 94.9591 443.46 94.9591C443.46 94.9591 450.85 96.4351 452.081 98.6542C452.081 98.6542 453.557 96.9301 452.819 94.9591C452.081 92.9881 452.573 92.2496 453.312 91.0177C454.051 89.7858 456.268 87.0762 456.514 85.8449C456.761 84.6136 463.165 69.341 463.165 69.341L460.159 41.5095L449.615 48.4029Z" fill="#D6D6E3"/>
<path d="M423.996 41.5061L423.536 41.5896C422.894 41.7059 422.314 42.045 421.898 42.5471C421.482 43.0493 421.256 43.6822 421.261 44.3343C421.279 46.8078 421.418 51.1966 422.025 57.2708C423.011 67.1242 426.459 81.904 427.198 83.3845C428.372 85.9998 429.688 88.549 431.14 91.0205C433.356 94.7156 433.849 93.4837 433.356 95.2084C433.206 95.6832 433.196 96.1912 433.327 96.6717C433.458 97.1521 433.724 97.5848 434.095 97.918C434.095 97.918 438.528 92.9916 442.962 95.7011C443.279 95.0046 443.447 94.2495 443.455 93.4843C443.455 92.2524 444.193 91.0211 442.962 90.282C441.732 89.5428 443.7 86.3405 441.73 84.6164C439.761 82.8924 439.514 83.1405 439.76 81.4141C439.875 80.2416 439.706 79.0587 439.267 77.9654L423.996 41.5061Z" fill="#D6D6E3"/>
<path d="M438.672 8.47339C438.672 8.47339 434.688 19.0324 424.928 23.4127L423.335 14.0504L438.672 8.47339Z" fill="#090814"/>
<path d="M492.016 77.8642C490.365 83.9641 484.713 87.7421 484.713 87.7421C484.713 87.7421 481.737 81.6297 483.387 75.5299C485.037 69.4301 490.689 65.6521 490.689 65.6521C490.689 65.6521 493.666 71.7644 492.016 77.8642Z" fill="#9C0D38"/>
<path d="M294.771 258.889H236.708C232.961 258.889 229.909 257.123 229.909 254.954C229.909 252.785 232.959 251.019 236.708 251.019H294.771C298.518 251.019 301.57 252.784 301.57 254.954C301.57 257.124 298.518 258.889 294.771 258.889Z" fill="#D1D1D2"/>
</svg>
