<svg width="523" height="567" viewBox="0 0 523 567" fill="none" xmlns="http://www.w3.org/2000/svg">
<path d="M365.781 25.0004H156.434C147.345 25.09 138.439 27.2888 130.592 31.3801C122.746 35.4715 116.23 41.3145 111.686 48.3337L7.01181 211.667C2.41829 218.761 0 226.808 0 235C0 243.192 2.41829 251.239 7.01181 258.333L111.686 421.666C116.23 428.686 122.746 434.528 130.592 438.62C138.439 442.711 147.345 444.91 156.434 445H365.781C375.004 445.032 384.072 442.891 392.068 438.794C400.064 434.696 406.703 428.788 411.314 421.666L515.988 258.333C520.582 251.239 523 243.192 523 235C523 226.808 520.582 218.761 515.988 211.667L411.314 48.3337C406.703 41.2121 400.064 35.3035 392.068 31.206C384.072 27.1085 375.004 24.9677 365.781 25.0004Z" fill="white"/>
<path d="M131.088 506.92C131.088 510.173 130.341 513.16 128.848 515.88C127.355 518.547 125.061 520.707 121.968 522.36C118.875 524.013 115.035 524.84 110.448 524.84H101.968V545H88.2881V488.84H110.448C114.928 488.84 118.715 489.613 121.808 491.16C124.901 492.707 127.221 494.84 128.768 497.56C130.315 500.28 131.088 503.4 131.088 506.92ZM109.408 513.96C112.021 513.96 113.968 513.347 115.248 512.12C116.528 510.893 117.168 509.16 117.168 506.92C117.168 504.68 116.528 502.947 115.248 501.72C113.968 500.493 112.021 499.88 109.408 499.88H101.968V513.96H109.408ZM135.49 522.6C135.49 518.013 136.343 513.987 138.05 510.52C139.81 507.053 142.183 504.387 145.17 502.52C148.157 500.653 151.49 499.72 155.17 499.72C158.317 499.72 161.063 500.36 163.41 501.64C165.81 502.92 167.65 504.6 168.93 506.68V500.36H182.61V545H168.93V538.68C167.597 540.76 165.73 542.44 163.33 543.72C160.983 545 158.237 545.64 155.09 545.64C151.463 545.64 148.157 544.707 145.17 542.84C142.183 540.92 139.81 538.227 138.05 534.76C136.343 531.24 135.49 527.187 135.49 522.6ZM168.93 522.68C168.93 519.267 167.97 516.573 166.05 514.6C164.183 512.627 161.89 511.64 159.17 511.64C156.45 511.64 154.13 512.627 152.21 514.6C150.343 516.52 149.41 519.187 149.41 522.6C149.41 526.013 150.343 528.733 152.21 530.76C154.13 532.733 156.45 533.72 159.17 533.72C161.89 533.72 164.183 532.733 166.05 530.76C167.97 528.787 168.93 526.093 168.93 522.68ZM209.467 499.72C212.614 499.72 215.36 500.36 217.707 501.64C220.107 502.92 221.947 504.6 223.227 506.68V500.36H236.907V544.92C236.907 549.027 236.08 552.733 234.427 556.04C232.827 559.4 230.347 562.067 226.987 564.04C223.68 566.013 219.547 567 214.587 567C207.974 567 202.614 565.427 198.507 562.28C194.4 559.187 192.054 554.973 191.467 549.64H204.987C205.414 551.347 206.427 552.68 208.027 553.64C209.627 554.653 211.6 555.16 213.947 555.16C216.774 555.16 219.014 554.333 220.667 552.68C222.374 551.08 223.227 548.493 223.227 544.92V538.6C221.894 540.68 220.054 542.387 217.707 543.72C215.36 545 212.614 545.64 209.467 545.64C205.787 545.64 202.454 544.707 199.467 542.84C196.48 540.92 194.107 538.227 192.347 534.76C190.64 531.24 189.787 527.187 189.787 522.6C189.787 518.013 190.64 513.987 192.347 510.52C194.107 507.053 196.48 504.387 199.467 502.52C202.454 500.653 205.787 499.72 209.467 499.72ZM223.227 522.68C223.227 519.267 222.267 516.573 220.347 514.6C218.48 512.627 216.187 511.64 213.467 511.64C210.747 511.64 208.427 512.627 206.507 514.6C204.64 516.52 203.707 519.187 203.707 522.6C203.707 526.013 204.64 528.733 206.507 530.76C208.427 532.733 210.747 533.72 213.467 533.72C216.187 533.72 218.48 532.733 220.347 530.76C222.267 528.787 223.227 526.093 223.227 522.68ZM288.884 521.96C288.884 523.24 288.804 524.573 288.644 525.96H257.684C257.897 528.733 258.777 530.867 260.324 532.36C261.924 533.8 263.87 534.52 266.164 534.52C269.577 534.52 271.95 533.08 273.284 530.2H287.844C287.097 533.133 285.737 535.773 283.764 538.12C281.844 540.467 279.417 542.307 276.484 543.64C273.55 544.973 270.27 545.64 266.644 545.64C262.27 545.64 258.377 544.707 254.964 542.84C251.55 540.973 248.884 538.307 246.964 534.84C245.044 531.373 244.084 527.32 244.084 522.68C244.084 518.04 245.017 513.987 246.884 510.52C248.804 507.053 251.47 504.387 254.884 502.52C258.297 500.653 262.217 499.72 266.644 499.72C270.964 499.72 274.804 500.627 278.164 502.44C281.524 504.253 284.137 506.84 286.004 510.2C287.924 513.56 288.884 517.48 288.884 521.96ZM274.884 518.36C274.884 516.013 274.084 514.147 272.484 512.76C270.884 511.373 268.884 510.68 266.484 510.68C264.19 510.68 262.244 511.347 260.644 512.68C259.097 514.013 258.137 515.907 257.764 518.36H274.884ZM349.614 488.84V499.8H326.734V511.64H343.854V522.28H326.734V545H313.054V488.84H349.614ZM370.484 485.8V545H356.804V485.8H370.484ZM400.718 545.64C396.344 545.64 392.398 544.707 388.878 542.84C385.411 540.973 382.664 538.307 380.638 534.84C378.664 531.373 377.678 527.32 377.678 522.68C377.678 518.093 378.691 514.067 380.717 510.6C382.744 507.08 385.518 504.387 389.038 502.52C392.558 500.653 396.504 499.72 400.878 499.72C405.251 499.72 409.198 500.653 412.718 502.52C416.238 504.387 419.011 507.08 421.038 510.6C423.064 514.067 424.078 518.093 424.078 522.68C424.078 527.267 423.038 531.32 420.958 534.84C418.931 538.307 416.131 540.973 412.558 542.84C409.038 544.707 405.091 545.64 400.718 545.64ZM400.718 533.8C403.331 533.8 405.544 532.84 407.358 530.92C409.224 529 410.158 526.253 410.158 522.68C410.158 519.107 409.251 516.36 407.438 514.44C405.678 512.52 403.491 511.56 400.878 511.56C398.211 511.56 395.998 512.52 394.238 514.44C392.478 516.307 391.598 519.053 391.598 522.68C391.598 526.253 392.451 529 394.158 530.92C395.918 532.84 398.104 533.8 400.718 533.8ZM495.415 500.36L483.335 545H468.215L461.175 516.04L453.895 545H438.855L426.695 500.36H440.375L446.695 532.28L454.215 500.36H468.695L476.295 532.12L482.535 500.36H495.415Z" fill="white"/>
<path fill-rule="evenodd" clip-rule="evenodd" d="M24.1353 497.129C22.5286 498.713 22.6341 502.612 24.4084 507.214C25.7382 510.663 25.7731 511.292 24.7877 514.044C24.1907 515.712 23.7022 519.304 23.7029 522.029C23.7044 537.387 39.1782 548.577 54.388 544.219C58.6619 542.994 58.91 543.003 62.4412 544.501C66.4648 546.206 69.3133 546.448 71.5436 545.272C73.5182 544.229 73.4818 539.866 71.4533 534.523C70.0939 530.942 69.9984 529.863 70.7023 526.038C72.0541 518.69 69.8618 511.247 64.6093 505.351C59.7627 499.91 49.2774 496.945 41.6148 498.846C38.5099 499.617 37.8719 499.523 34.6297 497.825C30.5652 495.695 25.9051 495.386 24.1353 497.129ZM32.4677 500.035L35.1152 501.126L31.6689 504.257C29.7739 505.979 28.105 507.254 27.9617 507.091C26.9034 505.891 25.9779 503.159 25.9779 501.237C25.9779 499.283 26.2609 498.945 27.8987 498.945C28.9554 498.945 31.0112 499.436 32.4677 500.035ZM56.3429 503.334C63.8401 507.141 67.8591 513.547 67.938 521.817C67.9911 527.372 65.27 533.497 61.1767 537.039L58.5072 539.35L55.4956 537.277C53.1136 535.638 52.5515 534.828 52.8041 533.402C53.615 528.827 49.3623 524.752 44.7069 525.643C42.136 526.135 39.999 524.318 33.8271 516.388C29.8096 511.227 29.6988 510.963 30.839 509.248C32.4434 506.835 36.1658 504.212 40.3419 502.553C45.005 500.701 51.8118 501.033 56.3429 503.334ZM45.0748 508.151C41.7992 511.588 43.7829 516.888 48.3443 516.888C50.2029 516.888 51.3309 516.351 52.4733 514.918C54.5382 512.331 54.4586 510.498 52.1835 508.257C49.8471 505.953 47.2079 505.915 45.0748 508.151ZM50.9766 509.745C53.5672 512.82 49.3077 516.704 46.4418 513.88C44.631 512.095 44.5764 511.375 46.1345 509.839C47.6252 508.37 49.7841 508.329 50.9766 509.745ZM30.7434 517.618C31.9048 519.236 34.5371 522.373 36.5937 524.591C39.9899 528.253 40.2926 528.87 39.889 531.319C39.509 533.63 39.7752 534.339 41.7567 536.292C44.1516 538.652 45.8645 539.039 48.892 537.905C50.2673 537.389 51.1541 537.626 52.8511 538.959L55.0381 540.678L52.0766 541.489C47.7685 542.668 44.7569 542.498 40.2054 540.819C32.4912 537.975 26.776 530.024 26.7638 522.121C26.757 517.795 27.3457 514.634 28.1528 514.661C28.4168 514.67 29.5828 516.001 30.7434 517.618ZM54.8849 522.72C53.8714 524.587 55.4667 526.879 57.5096 526.491C59.7308 526.07 59.5707 521.831 57.3215 521.515C56.2928 521.371 55.3704 521.828 54.8849 522.72ZM32.3213 529.224C31.6044 531.064 32.6354 532.588 34.5971 532.588C36.558 532.588 37.589 531.064 36.8729 529.224C36.6324 528.607 35.6083 528.102 34.5971 528.102C33.5851 528.102 32.561 528.607 32.3213 529.224ZM69.9187 540.999C69.9862 543.417 68.4243 543.685 64.2558 541.969L61.6189 540.883L64.849 537.51L68.0799 534.137L68.9705 536.54C69.4605 537.862 69.8868 539.868 69.9187 540.999Z" fill="white"/>
<g clip-path="url(#clip0_194_75)">
<path d="M80.9306 280.405H54.0881V254.899C54.0881 250.349 58.0057 246.627 62.7938 246.627H88.9108V272.822C88.9108 277.003 85.3309 280.405 80.9306 280.405Z" fill="#3F3D56"/>
<path d="M448.019 34.3103H421.177V8.80473C421.177 4.25506 425.095 0.532654 429.883 0.532654H456V26.7276C456 30.9087 452.42 34.3103 448.019 34.3103Z" fill="#3F3D56"/>
<path d="M259.935 434.124L250.266 434.123L245.667 398.688L259.937 398.689L259.935 434.124Z" fill="#A0616A"/>
<path d="M260.274 443.708L230.543 443.707V443.35C230.543 437.277 235.724 432.354 242.115 432.354L247.547 428.439L257.679 432.354L260.275 432.354L260.274 443.708Z" fill="#2F2E41"/>
<path d="M253.808 251.239L247.427 272.289C247.427 272.289 233.643 341.178 237.27 350.829C240.898 360.48 243.571 421.187 243.571 421.187H262.445C262.445 421.187 264.987 405.786 264.912 403.468C264.838 401.151 269.191 363.926 263.387 358.412L288.779 297.75L328.68 266.04L313.034 247.586L253.808 251.239Z" fill="#2F2E41"/>
<path opacity="0.5" d="M346.091 285.387V274.357L334.484 259.192C329.696 259.192 325.778 262.914 325.778 267.464V304.688C325.778 309.238 329.696 312.96 334.484 312.96H373.659C378.447 312.96 382.365 309.238 382.365 304.688L366.405 294.348H355.522C350.322 294.348 346.091 290.328 346.091 285.387Z" fill="#9C0D38"/>
<path opacity="0.5" d="M402.112 194.049H165.289C157.576 194.049 151.302 188.087 151.302 180.759V102.56C151.302 95.2316 157.576 89.2695 165.289 89.2695H402.112C409.825 89.2695 416.099 95.2316 416.099 102.56V180.759C416.099 188.087 409.825 194.049 402.112 194.049Z" fill="#9C0D38"/>
<path d="M300.227 179.228H145.701C137.788 179.228 131.351 173.111 131.351 165.593V87.3943C131.351 79.8759 137.788 73.7593 145.701 73.7593H382.524C390.436 73.7593 396.874 79.8762 396.874 87.3947C396.874 138.032 353.518 179.228 300.227 179.228ZM145.701 75.138C138.588 75.138 132.802 80.6362 132.802 87.3943V165.593C132.802 172.351 138.588 177.85 145.701 177.85H300.227C352.718 177.85 395.423 137.272 395.423 87.3947C395.423 80.6362 389.636 75.138 382.524 75.138H145.701Z" fill="#9C0D38"/>
<path d="M319.829 259.911L318.293 239.257L330.588 236.777L331.394 258.669C331.879 259.155 332.298 259.714 332.629 260.344C334.427 263.769 332.964 267.931 329.359 269.64C325.755 271.349 321.374 269.958 319.576 266.533C318.429 264.349 318.613 261.868 319.829 259.911Z" fill="#A0616A"/>
<path d="M300.31 127.474L295.58 130.824L307.205 193.815L305.506 197.672L307.773 199.698L308.468 204.542L317.622 249.541H331.582C331.377 247.978 335.413 246.376 335.209 244.716C334.976 242.818 333.341 239.947 333.109 237.942C333.037 237.321 332.965 236.695 332.892 236.065C332.787 235.141 332.681 234.207 332.575 233.265C332.492 232.535 332.41 231.801 332.328 231.061C330.543 215.057 329.809 197.048 328.778 181.497C327.464 161.672 325.667 145.842 320.593 143.256L300.31 127.474Z" fill="#3F3D56"/>
<path d="M335.597 433.052C337.096 433.141 337.924 431.372 336.79 430.34L336.677 429.914C336.692 429.88 336.707 429.846 336.722 429.812C338.238 426.378 343.374 426.401 344.877 429.841C346.211 432.893 347.909 435.951 348.327 439.178C348.515 440.603 348.431 442.055 348.098 443.453C351.223 436.966 352.868 429.882 352.868 422.758C352.868 420.968 352.765 419.178 352.554 417.393C352.381 415.933 352.142 414.481 351.832 413.043C350.16 405.269 346.538 397.865 341.313 391.681C338.801 390.376 336.707 388.337 335.442 385.893C334.987 385.011 334.631 384.063 334.462 383.097C334.748 383.132 335.54 378.996 335.325 378.742C335.723 378.168 336.436 377.882 336.871 377.322C339.034 374.535 342.015 375.021 343.571 378.809C346.896 380.403 346.928 383.047 344.888 385.59C343.59 387.208 343.412 389.397 342.274 391.129C342.391 391.271 342.513 391.409 342.63 391.552C344.778 394.17 346.636 396.984 348.202 399.94C347.759 396.654 348.413 392.696 349.527 390.145C350.795 387.237 353.172 384.789 355.266 382.276C357.78 379.257 362.937 380.574 363.38 384.401C363.384 384.438 363.388 384.475 363.392 384.512C363.081 384.679 362.777 384.856 362.479 385.043C360.782 386.11 361.368 388.61 363.379 388.905L363.425 388.911C363.312 389.975 363.12 391.031 362.839 392.068C365.525 401.936 359.727 405.531 351.448 405.692C351.265 405.781 351.087 405.87 350.905 405.955C351.743 408.199 352.413 410.501 352.91 412.834C353.355 414.895 353.665 416.979 353.838 419.072C354.053 421.712 354.035 424.365 353.8 427.001L353.814 426.908C354.41 424.005 356.068 421.293 358.477 419.414C362.065 416.614 367.134 415.583 371.004 413.331C372.868 412.248 375.255 413.648 374.93 415.701L374.914 415.799C374.338 416.022 373.776 416.28 373.232 416.569C372.921 416.736 372.617 416.913 372.319 417.1C370.622 418.167 371.208 420.667 373.219 420.962L373.265 420.968C373.298 420.973 373.326 420.977 373.359 420.982C372.37 423.212 370.992 425.283 369.268 427.068C367.589 435.683 360.377 436.5 352.662 433.991H352.657C351.814 437.482 350.581 440.893 348.998 444.143H335.924C335.877 444.005 335.835 443.862 335.793 443.724C337.002 443.795 338.22 443.729 339.411 443.519C338.441 442.389 337.471 441.249 336.501 440.118C336.477 440.096 336.459 440.073 336.44 440.051C335.948 439.472 335.451 438.898 334.959 438.319L334.959 438.318C334.928 436.542 335.153 434.77 335.597 433.052Z" fill="#9C0D38"/>
<path d="M195 443.82C195 444.275 195.385 444.641 195.863 444.641H379.618C380.097 444.641 380.482 444.275 380.482 443.82C380.482 443.365 380.097 443 379.618 443H195.863C195.385 443 195 443.365 195 443.82Z" fill="#3F3D56"/>
<path d="M69.461 0C60.3698 0 53 7.00277 53 15.6411V280.561H54.4509V108.695C54.4509 49.4257 105.016 1.37868 167.393 1.37868L455.901 1.12799L455.637 0H69.461Z" fill="#3F3D56"/>
<path d="M190.114 176.471C190.114 177.395 190.085 178.318 190.034 179.228H145.701C138.177 179.228 132.076 173.431 132.076 166.282V127.142C133.984 126.942 135.921 126.839 137.88 126.839C166.725 126.839 190.114 149.063 190.114 176.471Z" fill="#9C0D38"/>
<path d="M354.471 126.147H212.736C210.32 126.147 208.357 128.012 208.357 130.308C208.357 132.603 210.32 134.468 212.736 134.468H354.471C356.886 134.468 358.85 132.603 358.85 130.308C358.85 128.012 356.886 126.147 354.471 126.147Z" fill="#9C0D38"/>
<path d="M256.681 102.816H212.736C210.32 102.816 208.357 104.682 208.357 106.977C208.357 109.272 210.32 111.138 212.736 111.138H256.681C259.097 111.138 261.06 109.272 261.06 106.977C261.06 104.682 259.097 102.816 256.681 102.816Z" fill="#9C0D38"/>
<path d="M299.836 434.124L290.167 434.123L285.568 398.688L299.838 398.689L299.836 434.124Z" fill="#A0616A"/>
<path d="M300.176 443.708L270.444 443.707V443.35C270.445 437.277 275.626 432.354 282.017 432.354L287.448 428.439L297.581 432.354L300.176 432.354L300.176 443.708Z" fill="#2F2E41"/>
<path d="M279.71 259.536L284.788 301.586L273.543 345.359L283.337 421.531L301.474 422.91C301.474 422.91 310.18 367.073 302.2 347.772L322.513 271.944L307.278 263.672L279.71 259.536Z" fill="#2F2E41"/>
<path d="M298.632 117.454C295.432 114.207 296.528 111.249 291.58 110.421C288.225 109.859 284.188 110.422 280.752 110.419C272.119 110.412 270.821 114.948 265.851 120.974C253.049 136.496 264.96 148.952 261.936 167.51C259.126 184.753 266.656 194.143 263.321 211.433C261.734 219.663 258.657 231.251 253.272 240.716C250.299 245.942 248.873 252.022 249.603 257.813C250.248 262.938 319.906 263.536 321.834 262.275C324.103 260.79 323.336 257.606 323.557 255.389C324.158 249.38 324.769 245.171 323.25 239.034C321.823 233.267 321.85 226.567 321.83 220.607C321.811 214.861 313.293 224.347 313.788 218.61C314.419 211.293 315.671 204.135 317.049 196.885C318.116 191.273 318.534 185.507 320.101 180.012C321.907 173.683 324.06 168.115 324.132 161.477C324.189 156.31 325.501 149.087 323.339 144.353C320.154 137.379 313.731 131.099 308.313 125.513C305.619 122.736 302.944 120.928 299.866 118.626" fill="#3F3D56"/>
<path d="M189.28 149.235L208.893 158.259L205.031 169.624L184.652 159.382C183.967 159.54 183.248 159.606 182.509 159.565C178.487 159.341 175.418 156.061 175.654 152.24C175.89 148.419 179.342 145.503 183.363 145.727C185.928 145.87 188.1 147.259 189.28 149.235Z" fill="#A0616A"/>
<path d="M249.44 200.744C247.561 199.799 218.945 182.458 203.898 174.403C203.616 174.252 201.674 175.241 201.403 175.096C200.989 174.874 201.383 173.231 200.996 173.024C200.159 172.576 198.594 173.592 197.899 173.22C195.385 171.874 195.918 166.131 195.918 166.131L200.996 154.412L209.299 154.16L211.153 157.169L215.089 156.719L217.682 159.927L247.566 171.068C248.728 156.262 254.959 144.048 261.708 132.099L264.437 132.589C271.317 133.824 275.907 140.047 274.781 146.614L266.901 192.576C266.138 196.853 262.953 200.301 258.59 201.575C255.437 202.496 252.166 202.116 249.44 200.744Z" fill="#3F3D56"/>
<path d="M279.108 106.063C291.371 106.063 301.311 96.6175 301.311 84.9659C301.311 73.3142 291.371 63.8687 279.108 63.8687C266.846 63.8687 256.905 73.3142 256.905 84.9659C256.905 96.6175 266.846 106.063 279.108 106.063Z" fill="#A0616A"/>
<path d="M303.752 85.6074C302.976 85.311 302.199 85.0628 301.525 84.9043C305.335 89.462 298.903 93.4616 297.905 98.1261C297.988 101.829 295.858 103.509 292.13 104.523L292.217 104.233C261.899 111.613 293.881 87.0487 270.177 86.3719C266.564 86.5725 271.389 75.779 267.674 76.322C258.243 77.7007 257.804 76.7533 256.793 83.2162C254.957 83.7875 252.439 81.1474 252.737 78.39C252.065 77.2296 250.309 77.9724 249.603 76.2115C248.856 74.8675 247.434 66.0784 250.676 70.1869C250.891 67.3821 250.056 61.6481 253.738 66.5472C253.259 64.3184 255.295 65.2836 256.146 66.6092C256.749 65.3063 257.351 64.0104 257.946 62.7075C257.779 63.2935 257.888 63.9346 258.193 64.5136C259.904 61.0592 262.516 60.7463 266.593 59.771C266.546 60.8292 266.571 62.0673 266.724 63.0246C271.458 55.572 282.922 57.6541 287.494 64.2382C290.391 64.8668 291.615 63.9139 294.517 64.6032C302.314 66.4555 305.879 77.8796 303.752 85.6074Z" fill="#2F2E41"/>
<path d="M362.777 284.697H389.619V259.192C389.619 254.642 385.702 250.92 380.914 250.92H354.797V277.115C354.797 281.296 358.377 284.697 362.777 284.697Z" fill="#9C0D38"/>
<path d="M145.647 44.018C149.035 44.018 151.782 41.3499 151.782 38.0586C151.782 34.7674 149.035 32.0992 145.647 32.0992C142.259 32.0992 139.512 34.7674 139.512 38.0586C139.512 41.3499 142.259 44.018 145.647 44.018Z" fill="#3F3D56"/>
<path d="M166.841 44.018C170.229 44.018 172.976 41.3499 172.976 38.0586C172.976 34.7674 170.229 32.0992 166.841 32.0992C163.453 32.0992 160.706 34.7674 160.706 38.0586C160.706 41.3499 163.453 44.018 166.841 44.018Z" fill="#3F3D56"/>
<path d="M188.035 44.018C191.423 44.018 194.17 41.3499 194.17 38.0586C194.17 34.7674 191.423 32.0992 188.035 32.0992C184.646 32.0992 181.9 34.7674 181.9 38.0586C181.9 41.3499 184.646 44.018 188.035 44.018Z" fill="#3F3D56"/>
<path d="M338.473 58.0925C337.873 58.0925 337.385 58.5563 337.385 59.1265V66.0199C337.385 66.5901 337.873 67.0539 338.473 67.0539H345.728C346.328 67.0539 346.816 66.5901 346.816 66.0199V59.1265C346.816 58.5563 346.328 58.0925 345.728 58.0925H338.473Z" fill="#9C0D38"/>
<path d="M355.159 58.0925C354.559 58.0925 354.071 58.5563 354.071 59.1265V66.0199C354.071 66.5901 354.559 67.0539 355.159 67.0539H362.414C363.014 67.0539 363.502 66.5901 363.502 66.0199V59.1265C363.502 58.5563 363.014 58.0925 362.414 58.0925H355.159Z" fill="#9C0D38"/>
<path d="M371.845 58.0925C371.245 58.0925 370.757 58.5563 370.757 59.1265V66.0199C370.757 66.5901 371.245 67.0539 371.845 67.0539H379.1C379.7 67.0539 380.188 66.5901 380.188 66.0199V59.1265C380.188 58.5563 379.7 58.0925 379.1 58.0925H371.845Z" fill="#9C0D38"/>
</g>
<defs>
<clipPath id="clip0_194_75">
<rect width="403" height="445" fill="white" transform="translate(53)"/>
</clipPath>
</defs>
</svg>
