<svg width="150" height="150" viewBox="0 0 150 150" fill="none" xmlns="http://www.w3.org/2000/svg">
<g clip-path="url(#clip0_245_49)">
<circle cx="75" cy="75" r="75" fill="#D9D9D9"/>
<path d="M83.7562 109.179L87.326 86.8677L63.2298 77.0508L59.66 110.964L83.7562 109.179Z" fill="#A0616A"/>
<path d="M107.974 142.152C105.905 143.16 103.797 144.071 101.657 144.879C97.3776 146.498 92.9601 147.72 88.4284 148.536C83.9992 149.335 79.4517 149.741 74.9042 149.741C68.7607 149.741 62.6528 149.004 56.7458 147.546C54.4327 146.979 52.0998 146.286 49.8064 145.477C49.566 145.391 49.3218 145.304 49.0813 145.217C46.2362 144.185 43.4383 142.975 40.747 141.608C40.3844 141.427 40.0219 141.241 39.6594 141.044C39.2574 140.839 38.8594 140.623 38.4574 140.398C37.9451 140.118 37.4368 139.827 36.9284 139.531C35.2262 138.546 33.5514 137.482 31.9515 136.375L31.8451 136.304C31.7505 136.237 31.6559 136.174 31.5653 136.107C31.6244 135.796 31.6796 135.512 31.7308 135.26C31.9278 134.271 32.0579 133.727 32.0579 133.727L42.8472 111.438L45.854 105.228L47.3199 104.625L58.3931 100.074H85.4572L93.9965 103.605C93.9965 103.605 94.0399 103.766 94.1266 104.077C94.9777 107.131 99.9429 124.47 107.647 141.434C107.753 141.671 107.864 141.911 107.974 142.152Z" fill="white"/>
<path d="M77.667 94.0397C91.238 94.0397 102.239 83.0382 102.239 69.4673C102.239 55.8964 91.238 44.895 77.667 44.895C64.0961 44.895 53.0947 55.8964 53.0947 69.4673C53.0947 83.0382 64.0961 94.0397 77.667 94.0397Z" fill="#A0616A"/>
<path d="M47.3629 104.414L47.3206 104.625L39.8291 140.244L39.7642 140.555L39.6599 141.045C39.2567 140.839 38.8591 140.622 38.4588 140.399C37.9456 140.118 37.4381 139.827 36.9277 139.531C35.2276 138.547 33.5527 137.481 31.9512 136.376L31.8441 136.303C31.751 136.238 31.6552 136.173 31.565 136.108C30.3413 135.254 29.1486 134.363 27.9841 133.444C27.9757 133.438 27.97 133.432 27.9616 133.424C25.8836 131.749 23.8817 129.947 21.9672 128.033C20.7323 126.798 19.5452 125.526 18.4089 124.221L18.5809 123.499L18.5979 123.426L18.8121 122.507C20.7181 114.457 27.1665 108.279 35.2896 106.723L46.0828 104.656L47.3629 104.414Z" fill="#9C0D38"/>
<path d="M123.89 131.737C120.71 134.444 117.301 136.895 113.703 139.047C113.353 139.26 112.994 139.468 112.636 139.677C111.107 140.56 109.55 141.383 107.974 142.152C105.905 143.161 103.797 144.071 101.657 144.879L101.491 144.098L93.031 103.869L94.1265 104.078L105.105 106.182C113.227 107.738 119.678 113.917 121.581 121.968L123.681 130.862L123.89 131.737Z" fill="#9C0D38"/>
<path d="M105.964 76.036C105.326 78.4162 102.114 89.052 93.8902 91.2901C92.2746 91.7315 88.4206 92.2399 89.4413 91.2901C89.6737 91.0735 89.8984 90.8607 90.123 90.6517C99.0485 82.2583 102.69 77.1278 101.027 65.7392C99.9705 58.4883 87.9438 51.9036 81.1777 51.2494C78.3247 50.9739 74.6836 51.939 72.2799 54.4257C68.3117 58.5238 68.9658 71.1025 66.767 78.4912C66.1759 80.4692 65.3838 82.077 64.2449 83.0502C63.5356 83.6571 63.0825 82.8848 62.7475 81.6198C62.0343 78.9322 61.8491 74.0107 60.8363 75.4014C57.9085 79.4329 60.6984 84.7762 61.5417 86.8373C61.7151 87.2591 61.8924 87.6647 62.0697 88.051V88.0549C62.1722 88.2754 62.2786 88.4963 62.381 88.7052V88.7091C65.1946 94.4465 68.5757 96.4995 71.5548 100.074C72.7252 101.473 73.8325 103.1 74.8216 105.275C75.4994 106.765 75.988 108.262 76.323 109.732C78.0292 117.101 76.0038 123.796 75.456 125.617C74.3093 129.408 72.339 135.921 66.5581 139.598C59.2994 144.217 52.6753 140.146 49.5071 144.532C49.4676 144.583 49.4321 144.634 49.3967 144.685C49.2785 144.863 49.1721 145.04 49.0814 145.217C46.2363 144.185 43.4385 142.975 40.7471 141.608C40.3845 141.427 40.022 141.241 39.6595 141.044C39.2575 140.839 38.8595 140.623 38.4576 140.398C38.4418 140.091 38.426 139.784 38.4142 139.472C38.1817 134.14 38.5324 128.281 39.8605 122.437C40.7116 118.705 41.5549 115.005 42.8474 111.438C43.6907 109.114 44.7231 106.844 46.0826 104.657C47.1703 102.899 48.4627 101.193 50.0311 99.5535C53.4753 95.9557 56.5372 94.4545 57.0218 90.6555C57.7153 85.2333 52.0685 83.602 50.0311 75.4014C48.6401 69.7941 47.186 61.712 48.5968 56.2659C49.9287 51.1197 51.0873 46.6549 54.953 42.2806C55.883 41.2323 63.516 33.9422 72.3587 32.7442C76.4332 32.1966 80.0666 37.4141 84.9923 38.537C90.6549 39.8258 93.8981 40.5627 97.0663 42.986C102.422 47.0763 103.931 53.1923 105.33 58.8747C106.425 63.3198 107.844 69.0691 105.964 76.036Z" fill="#2F2E41"/>
<path d="M128.033 21.9671C113.867 7.80169 95.0329 0 75 0C54.9671 0 36.1325 7.80169 21.9671 21.9671C7.80169 36.1325 0 54.9671 0 75C0 93.2848 6.49906 110.571 18.4088 124.221C19.5451 125.526 20.7322 126.798 21.9671 128.033C23.8816 129.947 25.8835 131.749 27.9615 133.424C27.9699 133.432 27.9756 133.438 27.984 133.444C41.2669 144.172 57.6852 150 75 150C95.0329 150 113.867 142.198 128.033 128.033C142.198 113.867 150 95.0329 150 75C150 54.9671 142.198 36.1325 128.033 21.9671ZM123.761 131.194C118.948 135.381 113.591 138.956 107.814 141.804C105.787 142.805 103.709 143.715 101.583 144.53C93.3242 147.699 84.3609 149.436 75 149.436C65.9662 149.436 57.3045 147.818 49.2885 144.857C45.9981 143.645 42.8177 142.204 39.7641 140.555C39.3158 140.312 38.8703 140.067 38.4276 139.816C36.0987 138.496 33.8459 137.055 31.6833 135.499C26.8506 132.031 22.4492 127.999 18.5808 123.499C7.35621 110.461 0.56391 93.5103 0.56391 75C0.56391 33.9558 33.9558 0.56391 75 0.56391C116.044 0.56391 149.436 33.9558 149.436 75C149.436 97.4098 139.483 117.539 123.761 131.194Z" fill="#D9D9D9"/>
</g>
<defs>
<clipPath id="clip0_245_49">
<rect width="150" height="150" fill="white"/>
</clipPath>
</defs>
</svg>
