<svg width="523" height="420" viewBox="0 0 523 420" fill="none" xmlns="http://www.w3.org/2000/svg">
<path d="M365.781 0.000367867H156.434C147.345 0.0900122 138.439 2.28876 130.592 6.38014C122.746 10.4715 116.23 16.3145 111.686 23.3337L7.01181 186.667C2.41829 193.761 0 201.808 0 210C0 218.192 2.41829 226.239 7.01181 233.333L111.686 396.666C116.23 403.686 122.746 409.528 130.592 413.62C138.439 417.711 147.345 419.91 156.434 420H365.781C375.004 420.032 384.072 417.891 392.068 413.794C400.064 409.696 406.703 403.788 411.314 396.666L515.988 233.333C520.582 226.239 523 218.192 523 210C523 201.808 520.582 193.761 515.988 186.667L411.314 23.3337C406.703 16.2121 400.064 10.3035 392.068 6.20601C384.072 2.10853 375.004 -0.0322786 365.781 0.000367867Z" fill="white"/>
<g clip-path="url(#clip0_191_72)">
<path d="M215.806 85.2714H157.813C155.824 85.2714 154.205 83.6224 154.205 81.5957C154.205 79.569 155.824 77.92 157.813 77.92H215.806C217.796 77.92 219.414 79.569 219.414 81.5957C219.414 83.6224 217.796 85.2714 215.806 85.2714Z" fill="#E6E7E8"/>
<path d="M261.064 97.712H157.813C155.824 97.712 154.205 96.063 154.205 94.0363C154.205 92.0096 155.824 90.3607 157.813 90.3607H261.064C263.053 90.3607 264.672 92.0096 264.672 94.0363C264.672 96.063 263.053 97.712 261.064 97.712Z" fill="#E6E7E8"/>
<path d="M261.064 110.041H157.813C155.824 110.041 154.205 108.392 154.205 106.365C154.205 104.338 155.824 102.689 157.813 102.689H261.064C263.053 102.689 264.672 104.338 264.672 106.365C264.672 108.392 263.053 110.041 261.064 110.041Z" fill="#E6E7E8"/>
<path d="M272.001 174.02V172.259C252.044 172.259 234.617 155.652 229.984 132.52L237.503 134.491C233.866 130.98 230.192 125.104 227.913 120.302C226.567 125.457 224.052 131.936 221.134 136.085L228.249 132.652C232.98 156.718 251.156 174.02 272.001 174.02Z" fill="#3F3D56"/>
<path d="M264.452 106.618C264.452 108.56 262.901 110.141 260.994 110.141H216.042C214.135 110.141 212.584 108.56 212.584 106.618C212.584 104.676 214.135 103.096 216.042 103.096H260.994C262.901 103.096 264.452 104.676 264.452 106.618Z" fill="#9C0D38"/>
<path d="M62.0379 302.837C61.3536 300.41 60.1817 298.339 58.7866 296.862L53.7176 273.323L42.6687 276.08L49.0003 299.662C48.5839 301.657 48.6672 304.039 49.3515 306.466C50.9148 312.011 55.0221 315.694 58.5253 314.692C62.0286 313.69 63.6012 308.382 62.0379 302.837Z" fill="#FFB6B6"/>
<path d="M60.5092 148.427C60.5092 148.427 48.5753 148.008 41.6595 155.933C33.7362 165.793 28.3202 204.427 32.386 207.028L43.4016 286.712L59.1098 284.513L55.0783 188.905L60.5092 148.427Z" fill="#9C0D38"/>
<path d="M141.073 282.743L138.214 379.997H97.152L95.4922 342.509L88.1961 379.997H44.186L49.6754 315.553L55.3463 302L59.1845 292.815L141.073 282.743Z" fill="#2F2E41"/>
<path d="M108.459 132.541L79.9317 130.78L70.4226 143.109C62.2099 144.9 54.792 147.213 49.6753 151.035C50.8995 187.956 48.2104 235.963 59.1845 245.262L49.4397 315.326C49.4397 315.326 53.3695 311.897 59.9341 313.107C62.202 313.526 64.9396 318.73 67.7264 319.046C89.139 321.469 123.863 318.977 141.073 282.743L134.393 230.291L136.122 153.677C130.717 149.324 123.997 146.496 116.239 144.87L108.459 132.541Z" fill="#9C0D38"/>
<path d="M163.379 111.108C163.689 114.161 163.295 117.032 162.39 119.334L167.142 148.229L153.579 150.131L150.219 120.615C148.871 118.55 147.91 115.821 147.601 112.768C146.894 105.793 149.853 99.7676 154.21 99.3092C158.567 98.8508 162.672 104.133 163.379 111.108Z" fill="#FFB6B6"/>
<path d="M118.286 155.884C116.866 158.018 117.261 160.418 116.922 163.3C115.483 175.538 138.503 211.699 154.432 215.863C156.522 216.409 157.713 218.706 159.822 219.168C166.072 220.537 171.891 215.483 171.554 208.98L167.227 125.578L149.05 131.894L150.213 175.195C150.097 166.224 142.011 157.09 135.887 153.291C135.887 153.291 123.481 148.076 118.286 155.884Z" fill="#9C0D38"/>
<path d="M97.156 128.501C111.034 128.501 122.284 117.041 122.284 102.904C122.284 88.7663 111.034 77.3058 97.156 77.3058C83.2781 77.3058 72.0278 88.7663 72.0278 102.904C72.0278 117.041 83.2781 128.501 97.156 128.501Z" fill="#FFB6B6"/>
<path d="M120.562 84.107C120.346 84.1599 123.869 80.661 124.02 80.5845C127.477 78.8233 123.924 96.0395 121.426 95.5551C115.28 94.3663 112.626 92.0062 110.24 97.8976C109.574 99.5355 109.159 101.385 107.863 102.556C106.082 104.15 103.125 104.018 101.673 105.92C100.506 107.452 100.843 109.707 101.708 111.433C102.572 113.168 103.886 114.638 104.673 116.408C105.555 118.399 101.794 124.73 100.359 128.288V128.297L100.351 128.318C99.9693 129.251 99.0632 126.563 98.1065 126.294C96.9617 125.973 95.2753 128.727 93.452 128.226C93.4433 128.226 93.4347 128.217 93.426 128.217C91.6884 127.724 89.752 127.196 87.833 126.668H87.8243C82.4214 125.171 81.0555 127.319 80.7962 127.258L77.442 123.682C76.2909 122.829 76.421 120.072 75.6094 119.332C74.9456 118.727 73.2907 120.126 72.803 119.544C70.4115 116.69 69.8613 113.836 68.4515 108.201C67.1635 103.049 64.4923 87.6295 69.9817 86.9338C75.1598 86.2733 71.3734 78.9289 76.5862 79.2019C76.275 77.8634 76.8542 76.4279 77.7965 75.4416C78.7301 74.4465 79.9749 73.8301 81.2284 73.3017C87.4094 70.7303 86.3806 68.52 92.8987 70.017C93.5471 69.0924 101.861 66.6818 103.037 66.9901C103.123 67.0076 101.224 70.7656 105.866 70.017C105.693 71.1002 108.224 68.7513 108.459 72.6589C113.41 69.6319 116.075 76.8771 116.239 77.9427C116.455 79.2724 114.484 78.5943 115.798 78.7968C116.577 78.9201 117.908 80.5317 117.778 81.333C118.34 80.5581 118.902 79.7919 119.472 79.017C119.576 79.0258 119.671 79.0434 119.775 79.061C122.403 79.5718 119.39 88.3234 119.498 85.5953C119.697 80.5845 123.181 83.517 120.562 84.107Z" fill="#2F2E41"/>
<path d="M441.078 78.859C440.15 86.6326 439.135 94.3955 438.035 102.146C437.588 105.294 437.116 108.481 435.873 111.399C435.024 113.39 433.835 115.209 432.653 117.015C431.257 119.15 429.837 121.312 427.94 122.999C426.043 124.687 423.578 125.872 421.068 125.673C427.729 121.105 432.207 113.379 432.914 105.23C433.247 101.399 432.791 97.5486 432.703 93.7041C432.616 89.8597 432.931 85.8815 434.673 82.4696C436.414 79.0576 439.853 76.3264 443.627 76.4234L441.078 78.859Z" fill="#2F2E41"/>
<path d="M373.561 244.657C368.141 249.135 361.478 249.918 358.681 246.404C355.883 242.89 358.009 236.41 363.43 231.932C365.802 229.971 368.413 228.719 370.834 228.226L394.036 209.542L402.411 220.82L378.649 238.042C377.675 240.353 375.934 242.696 373.561 244.657Z" fill="#A0616A"/>
<path d="M377.944 219.292L412.517 185.874L415.974 183.233C415.974 183.233 435.82 163.536 440.96 163.085C443.136 162.894 445.313 163.447 447.146 164.661C450.109 166.617 451.643 169.839 451.643 173.085C451.643 175.798 450.57 178.524 448.375 180.531L416.724 209.477L403.259 221.789L386.513 237.107L384.81 233.575L379.054 221.605L377.944 219.292Z" fill="#9C0D38"/>
<path d="M451.869 196.677L417.253 207.477C423.048 209.14 425.475 245.115 420.082 246.232C420.082 246.232 477.452 250.389 474.321 246.232C470.505 241.165 475.623 207.492 478.063 207.477L451.869 196.677Z" fill="#A0616A"/>
<path d="M497.931 380L494.905 342.802C494.905 329.496 494.058 317.476 492.701 306.758C487.264 263.74 473.631 241.689 473.631 241.689H422.627C422.558 241.768 422.489 241.83 422.42 241.909L422.411 241.918C410.378 254.802 404.119 287.2 401.335 306.758C400.013 316.067 399.477 322.469 399.477 322.469L394.489 367.627L398.094 380H427.771L427.304 377.349L446.4 306.758L446.634 305.895L446.841 306.758L464.545 380L497.931 380Z" fill="#2F2E41"/>
<path d="M423.672 175.218L434.45 153.056L443.531 136.954L450.875 129.33H470.973L472.844 136.954L484.07 143.307L488.041 175.074L473.894 243.996C457.055 230.019 422.347 226.148 422.347 226.148L416.724 209.477L413.007 189.394L412.558 186.992L423.672 175.218Z" fill="#9C0D38"/>
<path d="M422.379 215.31C415.402 215.108 409.849 211.278 409.975 206.756C410.101 202.233 415.858 198.73 422.835 198.932C425.889 199.02 428.67 199.804 430.822 201.036L460.373 202.268L459.51 216.383L430.47 213.67C428.253 214.776 425.433 215.398 422.379 215.31Z" fill="#A0616A"/>
<path d="M460.171 167.133L488.046 195.326L439.491 200.391L428.207 216.559L495.885 218.845C501.991 221.06 508.495 216.762 508.998 210.178C509.168 207.956 495.264 151.553 486.847 146.317C476.982 140.18 460.171 167.133 460.171 167.133Z" fill="#9C0D38"/>
<path d="M479.535 101.667C479.737 88.8616 469.711 78.3133 457.141 78.1068C444.57 77.9003 434.215 88.1138 434.013 100.919C433.81 113.725 443.836 124.273 456.407 124.48C468.977 124.686 479.332 114.473 479.535 101.667Z" fill="#A0616A"/>
<path d="M506.744 173.546C506.173 175.747 501.73 176.883 500.693 179.71C497.39 181.63 499.18 165.946 497.848 164.916C496.82 164.132 496.543 166.025 496.31 164.396C495.428 158.285 489.662 159.649 485.391 158.663C484.907 157.703 484.536 156.77 484.294 155.863C483.861 154.225 481.89 153.652 480.723 154.859C480.196 154.383 479.816 152.701 479.444 151.019C479.176 149.795 478.908 148.571 478.597 147.796L475.623 140.963L476.583 146.053C474.638 145.339 472.675 146.079 471.543 143.631C470.09 140.487 469.511 136.806 470.566 133.504C471.525 130.51 473.142 124.513 474.966 119.546C472.9 121.069 470.419 122.179 467.54 122.734C468.56 120.761 469.598 118.753 470.03 116.56C470.453 114.368 470.194 111.928 468.828 110.185C467.705 108.749 466.045 109.11 464.644 107.957C463.555 107.059 462.613 104.76 461.956 103.501C464.757 112.985 466.875 123.059 463.313 132.112C460.849 138.382 455.662 143.481 449.438 145.797C452.749 143.384 455.982 140.813 458.463 137.537C461.117 134.023 462.846 129.585 462.319 125.182C461.489 118.269 448.902 96.403 447.355 92.1055C448.202 96.3061 447.874 99.5821 445.643 101.387C445.064 95.2934 438.546 95.8482 434.993 93.4089C434.993 93.4089 432.244 77.584 438.693 77.4872C441.805 77.4431 445.064 69.993 447.891 68.6633C452.403 66.541 455.17 67.9852 460.175 68.1437C465.172 68.2934 469.969 70.4862 473.021 74.5106C474.62 76.6153 475.208 74.9421 477.611 76.2542C479.893 77.496 481.432 76.3423 484.017 76.4216C489.195 76.5625 494.218 79.3805 497.122 83.7396C500.027 88.1075 501.816 87.7024 500.667 94.4568C500.649 94.536 500.649 94.6945 500.667 94.9323C501.298 105.57 499.681 116.235 495.54 126.027C494.261 129.039 500.519 132.147 500.51 135.908C500.502 140.276 493.595 144.256 494.235 146.123C496.068 155.114 506.364 153.115 503.934 168.165C503.736 169.389 507.124 172.075 506.744 173.546Z" fill="#2F2E41"/>
<path d="M443.679 146.009C443.869 145.948 444.059 145.877 444.249 145.798C444.007 145.974 443.774 146.141 443.532 146.318L443.679 146.009Z" fill="#2F2E41"/>
<path d="M475.743 71.8162C473.267 72.1911 470.752 68.0059 472.157 62.202C475.221 66.9746 476.788 72.3473 477.034 78.2489L475.383 78.77L475.743 71.8162Z" fill="#9C0D38"/>
<path d="M488.395 66.3988C486.705 72.4986 478.124 76.5809 476.608 74.4581L476.434 78.0956L475.373 76.7053C478.451 72.0429 482.646 68.4662 488.395 66.3988Z" fill="#9C0D38"/>
<path d="M299.954 230.887C299.954 228.86 301.573 227.211 303.562 227.211H361.555C363.545 227.211 365.163 228.86 365.163 230.887C365.163 232.913 363.545 234.562 361.555 234.562H303.562C301.573 234.562 299.954 232.913 299.954 230.887Z" fill="#E6E7E8"/>
<path d="M299.954 255.544C299.954 253.518 301.573 251.869 303.562 251.869H361.555C363.545 251.869 365.163 253.518 365.163 255.544C365.163 257.571 363.545 259.22 361.555 259.22H303.562C301.573 259.22 299.954 257.571 299.954 255.544Z" fill="#E6E7E8"/>
<path d="M258.305 247.003C256.315 247.003 254.697 245.354 254.697 243.327C254.697 241.301 256.315 239.652 258.305 239.652H361.555C363.545 239.652 365.164 241.301 365.164 243.327C365.164 245.354 363.545 247.003 361.555 247.003H258.305Z" fill="#E6E7E8"/>
<path d="M250.629 211.824L243.514 208.391C246.432 212.539 248.947 219.018 250.293 224.174C252.572 219.371 256.246 213.495 259.883 209.985L252.364 211.956C256.997 188.824 274.424 172.217 294.381 172.217V170.456C273.536 170.456 255.359 187.758 250.629 211.824Z" fill="#3F3D56"/>
<path d="M283.374 247.07H238.421C236.515 247.07 234.964 245.49 234.964 243.548C234.964 241.605 236.515 240.025 238.421 240.025H283.374C285.281 240.025 286.832 241.605 286.832 243.548C286.832 245.49 285.281 247.07 283.374 247.07Z" fill="#9C0D38"/>
<path d="M296.503 175.03C297.7 167.513 292.689 160.431 285.311 159.211C277.932 157.991 270.979 163.096 269.782 170.613C268.584 178.13 273.595 185.212 280.974 186.432C288.353 187.651 295.306 182.547 296.503 175.03Z" fill="#3F3D56"/>
<path d="M209.663 73.009C214.273 73.009 218.011 69.2014 218.011 64.5045C218.011 59.8076 214.273 56 209.663 56C205.052 56 201.314 59.8076 201.314 64.5045C201.314 69.2014 205.052 73.009 209.663 73.009Z" fill="#E6E7E8"/>
<path d="M307.348 220.073C311.958 220.073 315.696 216.266 315.696 211.569C315.696 206.872 311.958 203.064 307.348 203.064C302.737 203.064 298.999 206.872 298.999 211.569C298.999 216.266 302.737 220.073 307.348 220.073Z" fill="#E6E7E8"/>
</g>
<defs>
<clipPath id="clip0_191_72">
<rect width="478" height="324" fill="white" transform="translate(31 56)"/>
</clipPath>
</defs>
</svg>
