<svg width="477" height="110" viewBox="0 0 477 110" fill="none" xmlns="http://www.w3.org/2000/svg">
<path d="M107.76 49.92C107.76 53.1733 107.013 56.16 105.52 58.88C104.027 61.5467 101.733 63.7067 98.64 65.36C95.5467 67.0133 91.7067 67.84 87.12 67.84H78.64V88H64.96V31.84H87.12C91.6 31.84 95.3867 32.6133 98.48 34.16C101.573 35.7067 103.893 37.84 105.44 40.56C106.987 43.28 107.76 46.4 107.76 49.92ZM86.08 56.96C88.6933 56.96 90.64 56.3467 91.92 55.12C93.2 53.8933 93.84 52.16 93.84 49.92C93.84 47.68 93.2 45.9467 91.92 44.72C90.64 43.4933 88.6933 42.88 86.08 42.88H78.64V56.96H86.08ZM112.162 65.6C112.162 61.0133 113.015 56.9867 114.722 53.52C116.482 50.0533 118.855 47.3867 121.842 45.52C124.829 43.6533 128.162 42.72 131.842 42.72C134.989 42.72 137.735 43.36 140.082 44.64C142.482 45.92 144.322 47.6 145.602 49.68V43.36H159.282V88H145.602V81.68C144.269 83.76 142.402 85.44 140.002 86.72C137.655 88 134.909 88.64 131.762 88.64C128.135 88.64 124.829 87.7067 121.842 85.84C118.855 83.92 116.482 81.2267 114.722 77.76C113.015 74.24 112.162 70.1867 112.162 65.6ZM145.602 65.68C145.602 62.2667 144.642 59.5733 142.722 57.6C140.855 55.6267 138.562 54.64 135.842 54.64C133.122 54.64 130.802 55.6267 128.882 57.6C127.015 59.52 126.082 62.1867 126.082 65.6C126.082 69.0133 127.015 71.7333 128.882 73.76C130.802 75.7333 133.122 76.72 135.842 76.72C138.562 76.72 140.855 75.7333 142.722 73.76C144.642 71.7867 145.602 69.0933 145.602 65.68ZM186.139 42.72C189.285 42.72 192.032 43.36 194.379 44.64C196.779 45.92 198.619 47.6 199.899 49.68V43.36H213.579V87.92C213.579 92.0267 212.752 95.7333 211.099 99.04C209.499 102.4 207.019 105.067 203.659 107.04C200.352 109.013 196.219 110 191.259 110C184.645 110 179.285 108.427 175.179 105.28C171.072 102.187 168.725 97.9733 168.139 92.64H181.659C182.085 94.3467 183.099 95.68 184.699 96.64C186.299 97.6533 188.272 98.16 190.619 98.16C193.445 98.16 195.685 97.3333 197.339 95.68C199.045 94.08 199.899 91.4933 199.899 87.92V81.6C198.565 83.68 196.725 85.3867 194.379 86.72C192.032 88 189.285 88.64 186.139 88.64C182.459 88.64 179.125 87.7067 176.139 85.84C173.152 83.92 170.779 81.2267 169.019 77.76C167.312 74.24 166.459 70.1867 166.459 65.6C166.459 61.0133 167.312 56.9867 169.019 53.52C170.779 50.0533 173.152 47.3867 176.139 45.52C179.125 43.6533 182.459 42.72 186.139 42.72ZM199.899 65.68C199.899 62.2667 198.939 59.5733 197.019 57.6C195.152 55.6267 192.859 54.64 190.139 54.64C187.419 54.64 185.099 55.6267 183.179 57.6C181.312 59.52 180.379 62.1867 180.379 65.6C180.379 69.0133 181.312 71.7333 183.179 73.76C185.099 75.7333 187.419 76.72 190.139 76.72C192.859 76.72 195.152 75.7333 197.019 73.76C198.939 71.7867 199.899 69.0933 199.899 65.68ZM265.556 64.96C265.556 66.24 265.476 67.5733 265.316 68.96H234.356C234.569 71.7333 235.449 73.8667 236.996 75.36C238.596 76.8 240.542 77.52 242.836 77.52C246.249 77.52 248.622 76.08 249.956 73.2H264.516C263.769 76.1333 262.409 78.7733 260.436 81.12C258.516 83.4667 256.089 85.3067 253.156 86.64C250.222 87.9733 246.942 88.64 243.316 88.64C238.942 88.64 235.049 87.7067 231.636 85.84C228.222 83.9733 225.556 81.3067 223.636 77.84C221.716 74.3733 220.756 70.32 220.756 65.68C220.756 61.04 221.689 56.9867 223.556 53.52C225.476 50.0533 228.142 47.3867 231.556 45.52C234.969 43.6533 238.889 42.72 243.316 42.72C247.636 42.72 251.476 43.6267 254.836 45.44C258.196 47.2533 260.809 49.84 262.676 53.2C264.596 56.56 265.556 60.48 265.556 64.96ZM251.556 61.36C251.556 59.0133 250.756 57.1467 249.156 55.76C247.556 54.3733 245.556 53.68 243.156 53.68C240.862 53.68 238.916 54.3467 237.316 55.68C235.769 57.0133 234.809 58.9067 234.436 61.36H251.556ZM326.286 31.84V42.8H303.406V54.64H320.526V65.28H303.406V88H289.726V31.84H326.286ZM347.156 28.8V88H333.476V28.8H347.156ZM377.389 88.64C373.016 88.64 369.069 87.7067 365.549 85.84C362.083 83.9733 359.336 81.3067 357.309 77.84C355.336 74.3733 354.349 70.32 354.349 65.68C354.349 61.0933 355.363 57.0667 357.389 53.6C359.416 50.08 362.189 47.3867 365.709 45.52C369.229 43.6533 373.176 42.72 377.549 42.72C381.923 42.72 385.869 43.6533 389.389 45.52C392.909 47.3867 395.683 50.08 397.709 53.6C399.736 57.0667 400.749 61.0933 400.749 65.68C400.749 70.2667 399.709 74.32 397.629 77.84C395.603 81.3067 392.803 83.9733 389.229 85.84C385.709 87.7067 381.763 88.64 377.389 88.64ZM377.389 76.8C380.003 76.8 382.216 75.84 384.029 73.92C385.896 72 386.829 69.2533 386.829 65.68C386.829 62.1067 385.923 59.36 384.109 57.44C382.349 55.52 380.163 54.56 377.549 54.56C374.883 54.56 372.669 55.52 370.909 57.44C369.149 59.3067 368.269 62.0533 368.269 65.68C368.269 69.2533 369.123 72 370.829 73.92C372.589 75.84 374.776 76.8 377.389 76.8ZM472.087 43.36L460.007 88H444.887L437.847 59.04L430.567 88H415.527L403.367 43.36H417.047L423.367 75.28L430.887 43.36H445.367L452.967 75.12L459.207 43.36H472.087Z" fill="white"/>
<path fill-rule="evenodd" clip-rule="evenodd" d="M1.13532 37.1292C-0.471381 38.7134 -0.365937 42.6123 1.40841 47.2139C2.73823 50.6627 2.77312 51.2922 1.78771 54.0442C1.1907 55.7121 0.702163 59.3044 0.702921 62.0287C0.704438 77.3871 16.1782 88.5768 31.388 84.2189C35.6619 82.9943 35.91 83.0032 39.4412 84.5007C43.4648 86.2061 46.3133 86.4475 48.5436 85.2715C50.5182 84.2293 50.4818 79.8662 48.4533 74.523C47.0939 70.9419 46.9984 69.8631 47.7023 66.0382C49.0541 58.6899 46.8618 51.2466 41.6093 45.3508C36.7627 39.9104 26.2774 36.9446 18.6148 38.8458C15.5099 39.6166 14.8719 39.5231 11.6297 37.8245C7.56515 35.6945 2.90512 35.3858 1.13532 37.1292ZM9.46771 40.0352L12.1152 41.126L8.66891 44.257C6.77394 45.9788 5.10504 47.2543 4.96166 47.0913C3.90343 45.8906 2.97794 43.1588 2.97794 41.2374C2.97794 39.2831 3.2609 38.9452 4.8987 38.9452C5.95542 38.9452 8.01121 39.4356 9.46771 40.0352ZM33.3429 43.3345C40.8401 47.1406 44.8591 53.547 44.938 61.8172C44.9911 67.372 42.27 73.4973 38.1767 77.0395L35.5072 79.3496L32.4956 77.2772C30.1136 75.6377 29.5515 74.828 29.8041 73.4023C30.615 68.8269 26.3623 64.7516 21.7069 65.6427C19.136 66.1354 16.999 64.318 10.8271 56.3879C6.8096 51.2271 6.69884 50.9632 7.83901 49.2482C9.44343 46.8348 13.1658 44.2122 17.3419 42.5532C22.005 40.7014 28.8118 41.0333 33.3429 43.3345ZM22.0748 48.1514C18.7992 51.5882 20.7829 56.8881 25.3443 56.8881C27.2029 56.8881 28.3309 56.3506 29.4733 54.9181C31.5382 52.3314 31.4586 50.4982 29.1835 48.2568C26.8471 45.9534 24.2079 45.9145 22.0748 48.1514ZM27.9766 49.7446C30.5672 52.8203 26.3077 56.7042 23.4418 53.8797C21.631 52.0951 21.5764 51.3751 23.1345 49.8388C24.6252 48.3705 26.7841 48.3286 27.9766 49.7446ZM7.74343 57.6178C8.90483 59.2356 11.5371 62.3734 13.5937 64.5908C16.9899 68.2534 17.2926 68.8702 16.889 71.3187C16.509 73.6296 16.7752 74.3391 18.7567 76.2919C21.1516 78.6521 22.8645 79.0394 25.892 77.9052C27.2673 77.3894 28.1541 77.6256 29.8511 78.9594L32.0381 80.6781L29.0766 81.4886C24.7685 82.6676 21.7569 82.4979 17.2054 80.8195C9.49122 77.9748 3.77598 70.0238 3.76384 62.1214C3.75702 57.795 4.34569 54.634 5.15283 54.6609C5.41682 54.6699 6.58278 56.0007 7.74343 57.6178ZM31.8849 62.7203C30.8714 64.5871 32.4667 66.8793 34.5096 66.4913C36.7308 66.0696 36.5707 61.8306 34.3215 61.5151C33.2928 61.3708 32.3704 61.8276 31.8849 62.7203ZM9.3213 69.2238C8.60443 71.0645 9.63536 72.5881 11.5971 72.5881C13.558 72.5881 14.589 71.0645 13.8729 69.2238C13.6324 68.6071 12.6083 68.1024 11.5971 68.1024C10.5851 68.1024 9.56101 68.6071 9.3213 69.2238ZM46.9187 80.9989C46.9862 83.4174 45.4243 83.6851 41.2558 81.9685L38.6189 80.883L41.849 77.5097L45.0799 74.1372L45.9705 76.5401C46.4605 77.8619 46.8868 79.8677 46.9187 80.9989Z" fill="#F1F0E9"/>
</svg>
