<svg width="95" height="95" viewBox="0 0 95 95" fill="none" xmlns="http://www.w3.org/2000/svg">
<g clip-path="url(#clip0_231_37)">
<path d="M53.0456 69.1466L55.3064 55.0161L40.0455 48.7987L37.7847 70.277L53.0456 69.1466Z" fill="#A0616A"/>
<path d="M68.3834 90.0295C67.0731 90.6683 65.738 91.245 64.3828 91.7566C61.6724 92.7821 58.8747 93.556 56.0046 94.0727C53.1994 94.5791 50.3194 94.8362 47.4393 94.8362C43.5484 94.8362 39.6801 94.3695 35.939 93.446C34.474 93.0868 32.9965 92.6476 31.544 92.1358C31.3918 92.081 31.2371 92.0261 31.0848 91.971C29.2829 91.3174 27.5109 90.5511 25.8064 89.6852C25.5767 89.5704 25.3471 89.4529 25.1176 89.3281C24.863 89.1984 24.6109 89.0612 24.3564 88.9189C24.0319 88.7417 23.7099 88.557 23.388 88.3698C22.3099 87.7458 21.2492 87.072 20.2359 86.3708L20.1685 86.3259C20.1086 86.2835 20.0487 86.2435 19.9913 86.2011C20.0287 86.004 20.0637 85.8241 20.0961 85.6645C20.2209 85.0381 20.3033 84.6937 20.3033 84.6937L27.1366 70.5778L29.0408 66.6446L29.9692 66.2626L36.9822 63.3801H54.1229L59.5311 65.6163C59.5311 65.6163 59.5586 65.7187 59.6135 65.9158C60.1525 67.85 63.2971 78.8312 68.1763 89.5752C68.2436 89.7249 68.3136 89.8772 68.3834 90.0295Z" fill="white"/>
<path d="M49.1892 59.5587C57.7841 59.5587 64.7516 52.5911 64.7516 43.9962C64.7516 35.4013 57.7841 28.4337 49.1892 28.4337C40.5943 28.4337 33.6267 35.4013 33.6267 43.9962C33.6267 52.5911 40.5943 59.5587 49.1892 59.5587Z" fill="#A0616A"/>
<path d="M29.9964 66.1287L29.9697 66.2626L25.225 88.8215L25.1839 89.0179L25.1179 89.3287C24.8625 89.1983 24.6107 89.0608 24.3572 88.9197C24.0322 88.7412 23.7107 88.5572 23.3875 88.3697C22.3107 87.7465 21.25 87.0715 20.2357 86.3715L20.1679 86.3251C20.1089 86.284 20.0482 86.2429 19.9911 86.2019C19.2161 85.6608 18.4607 85.0965 17.7232 84.5144C17.7179 84.5108 17.7143 84.5072 17.7089 84.5019C16.3929 83.4412 15.125 82.3001 13.9125 81.0876C13.1304 80.3054 12.3786 79.5001 11.6589 78.6733L11.7679 78.2162L11.7786 78.1697L11.9143 77.5876C13.1214 72.4894 17.2054 68.5769 22.35 67.5912L29.1857 66.2822L29.9964 66.1287Z" fill="white"/>
<path d="M78.4636 83.4331C76.4495 85.1477 74.2907 86.7002 72.0121 88.0629C71.79 88.1977 71.5629 88.3298 71.3358 88.4621C70.3675 89.0212 69.3816 89.5428 68.3833 90.0295C67.0731 90.6683 65.7379 91.2449 64.3827 91.7565L64.2779 91.2622L58.9196 65.7834L59.6134 65.9158L66.5665 67.2485C71.7101 68.2343 75.7957 72.1475 77.0011 77.2462L78.3313 82.8791L78.4636 83.4331Z" fill="white"/>
<path d="M67.1107 48.1562C66.7063 49.6636 64.6724 56.3996 59.4638 57.8171C58.4405 58.0967 55.9997 58.4186 56.6461 57.8171C56.7933 57.6799 56.9356 57.5451 57.0779 57.4128C62.7307 52.0969 65.0367 48.8476 63.9835 41.6349C63.3146 37.0427 55.6977 32.8723 51.4125 32.458C49.6056 32.2835 47.2996 32.8947 45.7772 34.4697C43.264 37.0651 43.6783 45.0317 42.2857 49.7111C41.9114 50.9639 41.4097 51.9822 40.6884 52.5985C40.2392 52.9829 39.9522 52.4937 39.74 51.6926C39.2884 49.9905 39.1711 46.8735 38.5297 47.7543C36.6754 50.3075 38.4423 53.6916 38.9764 54.997C39.0862 55.2641 39.1985 55.521 39.3108 55.7657V55.7681C39.3757 55.9078 39.4431 56.0477 39.508 56.18V56.1825C41.2899 59.8161 43.4312 61.1164 45.318 63.3801C46.0592 64.266 46.7605 65.2967 47.387 66.6745C47.8162 67.618 48.1257 68.5663 48.3379 69.4971C49.4185 74.1641 48.1357 78.4044 47.7888 79.5575C47.0625 81.9584 45.8147 86.0836 42.1534 88.4121C37.5563 91.3373 33.361 88.7592 31.3544 91.5369C31.3295 91.5693 31.307 91.6017 31.2846 91.6342C31.2097 91.7465 31.1423 91.8589 31.0849 91.971C29.283 91.3173 27.511 90.5511 25.8065 89.6851C25.5768 89.5703 25.3472 89.4528 25.1176 89.3281C24.8631 89.1984 24.611 89.0612 24.3564 88.9188C24.3464 88.7241 24.3364 88.5296 24.329 88.3324C24.1817 84.9557 24.4038 81.2445 25.2449 77.5433C25.784 75.1799 26.3181 72.8363 27.1366 70.5777C27.6708 69.1054 28.3246 67.6677 29.1856 66.2826C29.8745 65.1695 30.693 64.0888 31.6863 63.0506C33.8677 60.772 35.8068 59.8212 36.1138 57.4152C36.553 53.9811 32.9767 52.948 31.6863 47.7543C30.8054 44.203 29.8844 39.0843 30.7779 35.6351C31.6215 32.3758 32.3552 29.5482 34.8036 26.7778C35.3925 26.1139 40.2268 21.4968 45.8271 20.7381C48.4077 20.3912 50.7088 23.6956 53.8285 24.4068C57.4148 25.2231 59.4687 25.6898 61.4753 27.2245C64.867 29.815 65.8229 33.6885 66.7088 37.2873C67.4027 40.1026 68.3012 43.7438 67.1107 48.1562Z" fill="#2F2E41"/>
<path d="M81.0875 13.9125C72.1161 4.94107 60.1875 0 47.5 0C34.8125 0 22.8839 4.94107 13.9125 13.9125C4.94107 22.8839 0 34.8125 0 47.5C0 59.0804 4.11607 70.0286 11.6589 78.6732C12.3786 79.5 13.1304 80.3054 13.9125 81.0875C15.125 82.3 16.3929 83.4411 17.7089 84.5018C17.7143 84.5071 17.7179 84.5107 17.7232 84.5143C26.1357 91.3089 36.5339 95 47.5 95C60.1875 95 72.1161 90.0589 81.0875 81.0875C90.0589 72.1161 95 60.1875 95 47.5C95 34.8125 90.0589 22.8839 81.0875 13.9125ZM78.3821 83.0893C75.3339 85.7411 71.9411 88.0054 68.2821 89.8089C66.9982 90.4429 65.6821 91.0196 64.3357 91.5357C59.1054 93.5429 53.4286 94.6429 47.5 94.6429C41.7786 94.6429 36.2929 93.6179 31.2161 91.7429C29.1321 90.975 27.1179 90.0625 25.1839 89.0179C24.9 88.8643 24.6179 88.7089 24.3375 88.55C22.8625 87.7143 21.4357 86.8018 20.0661 85.8161C17.0054 83.6196 14.2179 81.0661 11.7679 78.2161C4.65893 69.9589 0.357143 59.2232 0.357143 47.5C0.357143 21.5054 21.5054 0.357143 47.5 0.357143C73.4946 0.357143 94.6429 21.5054 94.6429 47.5C94.6429 61.6929 88.3393 74.4411 78.3821 83.0893Z" fill="white"/>
</g>
<defs>
<clipPath id="clip0_231_37">
<rect width="95" height="95" fill="white"/>
</clipPath>
</defs>
</svg>
