<svg width="50" height="50" viewBox="0 0 50 50" fill="none" xmlns="http://www.w3.org/2000/svg">
<path fill-rule="evenodd" clip-rule="evenodd" d="M1.13532 1.12923C-0.471381 2.71344 -0.365937 6.61228 1.40841 11.2139C2.73823 14.6627 2.77312 15.2922 1.78771 18.0442C1.1907 19.7121 0.702163 23.3044 0.702921 26.0287C0.704438 41.3871 16.1782 52.5768 31.388 48.2189C35.6619 46.9943 35.91 47.0032 39.4412 48.5007C43.4648 50.2061 46.3133 50.4475 48.5436 49.2715C50.5182 48.2293 50.4818 43.8662 48.4533 38.523C47.0939 34.9419 46.9984 33.8631 47.7023 30.0382C49.0541 22.6899 46.8618 15.2466 41.6093 9.35082C36.7627 3.91038 26.2774 0.944566 18.6148 2.84577C15.5099 3.61656 14.8719 3.52311 11.6297 1.82452C7.56515 -0.305457 2.90512 -0.614224 1.13532 1.12923ZM9.46771 4.03523L12.1152 5.12601L8.66891 8.25705C6.77394 9.97882 5.10504 11.2543 4.96166 11.0913C3.90343 9.8906 2.97794 7.15879 2.97794 5.23741C2.97794 3.28313 3.2609 2.9452 4.8987 2.9452C5.95542 2.9452 8.01121 3.43564 9.46771 4.03523ZM33.3429 7.33448C40.8401 11.1406 44.8591 17.547 44.938 25.8172C44.9911 31.372 42.27 37.4973 38.1767 41.0395L35.5072 43.3496L32.4956 41.2772C30.1136 39.6377 29.5515 38.828 29.8041 37.4023C30.615 32.8269 26.3623 28.7516 21.7069 29.6427C19.136 30.1354 16.999 28.318 10.8271 20.3879C6.8096 15.2271 6.69884 14.9632 7.83901 13.2482C9.44343 10.8348 13.1658 8.21219 17.3419 6.55322C22.005 4.70136 28.8118 5.0333 33.3429 7.33448ZM22.0748 12.1514C18.7992 15.5882 20.7829 20.8881 25.3443 20.8881C27.2029 20.8881 28.3309 20.3506 29.4733 18.9181C31.5382 16.3314 31.4586 14.4982 29.1835 12.2568C26.8471 9.9534 24.2079 9.91452 22.0748 12.1514ZM27.9766 13.7446C30.5672 16.8203 26.3077 20.7042 23.4418 17.8797C21.631 16.0951 21.5764 15.3751 23.1345 13.8388C24.6252 12.3705 26.7841 12.3286 27.9766 13.7446ZM7.74343 21.6178C8.90483 23.2356 11.5371 26.3734 13.5937 28.5908C16.9899 32.2534 17.2926 32.8702 16.889 35.3187C16.509 37.6296 16.7752 38.3391 18.7567 40.2919C21.1516 42.6521 22.8645 43.0394 25.892 41.9052C27.2673 41.3894 28.1541 41.6256 29.8511 42.9594L32.0381 44.6781L29.0766 45.4886C24.7685 46.6676 21.7569 46.4979 17.2054 44.8195C9.49122 41.9748 3.77598 34.0238 3.76384 26.1214C3.75702 21.795 4.34569 18.634 5.15283 18.6609C5.41682 18.6699 6.58278 20.0007 7.74343 21.6178ZM31.8849 26.7203C30.8714 28.5871 32.4667 30.8793 34.5096 30.4913C36.7308 30.0696 36.5707 25.8306 34.3215 25.5151C33.2928 25.3708 32.3704 25.8276 31.8849 26.7203ZM9.3213 33.2238C8.60443 35.0645 9.63536 36.5881 11.5971 36.5881C13.558 36.5881 14.589 35.0645 13.8729 33.2238C13.6324 32.6071 12.6083 32.1024 11.5971 32.1024C10.5851 32.1024 9.56101 32.6071 9.3213 33.2238ZM46.9187 44.9989C46.9862 47.4174 45.4243 47.6851 41.2558 45.9685L38.6189 44.883L41.849 41.5097L45.0799 38.1372L45.9705 40.5401C46.4605 41.8619 46.8868 43.8677 46.9187 44.9989Z" fill="#F1F0E9"/>
</svg>
