<svg width="417" height="110" viewBox="0 0 417 110" fill="none" xmlns="http://www.w3.org/2000/svg">
<path d="M47.76 49.92C47.76 53.1733 47.0133 56.16 45.52 58.88C44.0267 61.5467 41.7333 63.7067 38.64 65.36C35.5467 67.0133 31.7067 67.84 27.12 67.84H18.64V88H4.96V31.84H27.12C31.6 31.84 35.3867 32.6133 38.48 34.16C41.5733 35.7067 43.8933 37.84 45.44 40.56C46.9867 43.28 47.76 46.4 47.76 49.92ZM26.08 56.96C28.6933 56.96 30.64 56.3467 31.92 55.12C33.2 53.8933 33.84 52.16 33.84 49.92C33.84 47.68 33.2 45.9467 31.92 44.72C30.64 43.4933 28.6933 42.88 26.08 42.88H18.64V56.96H26.08ZM52.1619 65.6C52.1619 61.0133 53.0152 56.9867 54.7219 53.52C56.4819 50.0533 58.8552 47.3867 61.8419 45.52C64.8285 43.6533 68.1619 42.72 71.8419 42.72C74.9885 42.72 77.7352 43.36 80.0819 44.64C82.4819 45.92 84.3219 47.6 85.6019 49.68V43.36H99.2819V88H85.6019V81.68C84.2685 83.76 82.4019 85.44 80.0019 86.72C77.6552 88 74.9085 88.64 71.7619 88.64C68.1352 88.64 64.8285 87.7067 61.8419 85.84C58.8552 83.92 56.4819 81.2267 54.7219 77.76C53.0152 74.24 52.1619 70.1867 52.1619 65.6ZM85.6019 65.68C85.6019 62.2667 84.6419 59.5733 82.7219 57.6C80.8552 55.6267 78.5619 54.64 75.8419 54.64C73.1219 54.64 70.8019 55.6267 68.8819 57.6C67.0152 59.52 66.0819 62.1867 66.0819 65.6C66.0819 69.0133 67.0152 71.7333 68.8819 73.76C70.8019 75.7333 73.1219 76.72 75.8419 76.72C78.5619 76.72 80.8552 75.7333 82.7219 73.76C84.6419 71.7867 85.6019 69.0933 85.6019 65.68ZM126.139 42.72C129.285 42.72 132.032 43.36 134.379 44.64C136.779 45.92 138.619 47.6 139.899 49.68V43.36H153.579V87.92C153.579 92.0267 152.752 95.7333 151.099 99.04C149.499 102.4 147.019 105.067 143.659 107.04C140.352 109.013 136.219 110 131.259 110C124.645 110 119.285 108.427 115.179 105.28C111.072 102.187 108.725 97.9733 108.139 92.64H121.659C122.085 94.3467 123.099 95.68 124.699 96.64C126.299 97.6533 128.272 98.16 130.619 98.16C133.445 98.16 135.685 97.3333 137.339 95.68C139.045 94.08 139.899 91.4933 139.899 87.92V81.6C138.565 83.68 136.725 85.3867 134.379 86.72C132.032 88 129.285 88.64 126.139 88.64C122.459 88.64 119.125 87.7067 116.139 85.84C113.152 83.92 110.779 81.2267 109.019 77.76C107.312 74.24 106.459 70.1867 106.459 65.6C106.459 61.0133 107.312 56.9867 109.019 53.52C110.779 50.0533 113.152 47.3867 116.139 45.52C119.125 43.6533 122.459 42.72 126.139 42.72ZM139.899 65.68C139.899 62.2667 138.939 59.5733 137.019 57.6C135.152 55.6267 132.859 54.64 130.139 54.64C127.419 54.64 125.099 55.6267 123.179 57.6C121.312 59.52 120.379 62.1867 120.379 65.6C120.379 69.0133 121.312 71.7333 123.179 73.76C125.099 75.7333 127.419 76.72 130.139 76.72C132.859 76.72 135.152 75.7333 137.019 73.76C138.939 71.7867 139.899 69.0933 139.899 65.68ZM205.556 64.96C205.556 66.24 205.476 67.5733 205.316 68.96H174.356C174.569 71.7333 175.449 73.8667 176.996 75.36C178.596 76.8 180.542 77.52 182.836 77.52C186.249 77.52 188.622 76.08 189.956 73.2H204.516C203.769 76.1333 202.409 78.7733 200.436 81.12C198.516 83.4667 196.089 85.3067 193.156 86.64C190.222 87.9733 186.942 88.64 183.316 88.64C178.942 88.64 175.049 87.7067 171.636 85.84C168.222 83.9733 165.556 81.3067 163.636 77.84C161.716 74.3733 160.756 70.32 160.756 65.68C160.756 61.04 161.689 56.9867 163.556 53.52C165.476 50.0533 168.142 47.3867 171.556 45.52C174.969 43.6533 178.889 42.72 183.316 42.72C187.636 42.72 191.476 43.6267 194.836 45.44C198.196 47.2533 200.809 49.84 202.676 53.2C204.596 56.56 205.556 60.48 205.556 64.96ZM191.556 61.36C191.556 59.0133 190.756 57.1467 189.156 55.76C187.556 54.3733 185.556 53.68 183.156 53.68C180.862 53.68 178.916 54.3467 177.316 55.68C175.769 57.0133 174.809 58.9067 174.436 61.36H191.556ZM266.286 31.84V42.8H243.406V54.64H260.526V65.28H243.406V88H229.726V31.84H266.286ZM287.156 28.8V88H273.476V28.8H287.156ZM317.389 88.64C313.016 88.64 309.069 87.7067 305.549 85.84C302.083 83.9733 299.336 81.3067 297.309 77.84C295.336 74.3733 294.349 70.32 294.349 65.68C294.349 61.0933 295.363 57.0667 297.389 53.6C299.416 50.08 302.189 47.3867 305.709 45.52C309.229 43.6533 313.176 42.72 317.549 42.72C321.923 42.72 325.869 43.6533 329.389 45.52C332.909 47.3867 335.683 50.08 337.709 53.6C339.736 57.0667 340.749 61.0933 340.749 65.68C340.749 70.2667 339.709 74.32 337.629 77.84C335.603 81.3067 332.803 83.9733 329.229 85.84C325.709 87.7067 321.763 88.64 317.389 88.64ZM317.389 76.8C320.003 76.8 322.216 75.84 324.029 73.92C325.896 72 326.829 69.2533 326.829 65.68C326.829 62.1067 325.923 59.36 324.109 57.44C322.349 55.52 320.163 54.56 317.549 54.56C314.883 54.56 312.669 55.52 310.909 57.44C309.149 59.3067 308.269 62.0533 308.269 65.68C308.269 69.2533 309.123 72 310.829 73.92C312.589 75.84 314.776 76.8 317.389 76.8ZM412.087 43.36L400.007 88H384.887L377.847 59.04L370.567 88H355.527L343.367 43.36H357.047L363.367 75.28L370.887 43.36H385.367L392.967 75.12L399.207 43.36H412.087Z" fill="white"/>
</svg>
